<?xml version="1.0" encoding="utf-8"?>
<svg version="1.1" xmlns:xlink="http://www.w3.org/1999/xlink" width="22px" height="22px" xmlns="http://www.w3.org/2000/svg">
  <g transform="matrix(1 0 0 1 -1181 -542 )">
    <path d="M 18.1328125 9.32421875  C 18.3046875 9.15234375  18.390625 8.9375  18.390625 8.6796875  C 18.390625 8.41232638888889  18.3046875 8.192708333333334  18.1328125 8.020833333333334  L 16.829427083333336 6.731770833333334  C 16.648003472222225 6.5503472222222205  16.433159722222225 6.459635416666666  16.184895833333336 6.459635416666666  C 15.936631944444446 6.459635416666666  15.721788194444446 6.5503472222222205  15.540364583333334 6.731770833333334  L 9.696614583333332 12.561197916666668  L 6.459635416666667 9.32421875  C 6.278211805555555 9.14279513888889  6.063368055555555 9.052083333333334  5.815104166666667 9.052083333333334  C 5.566840277777779 9.052083333333334  5.351996527777778 9.14279513888889  5.170572916666666 9.32421875  L 3.8671875 10.61328125  C 3.6953125 10.78515625  3.6093750000000004 11.004774305555554  3.609375 11.272135416666668  C 3.6093750000000004 11.529947916666668  3.6953125 11.744791666666668  3.8671875 11.916666666666668  L 9.052083333333332 17.1015625  C 9.233506944444446 17.282986111111107  9.448350694444446 17.373697916666664  9.696614583333332 17.373697916666664  C 9.954427083333332 17.373697916666664  10.17404513888889 17.282986111111107  10.35546875 17.1015625  L 18.1328125 9.32421875  Z M 20.524739583333336 5.478515625  C 21.508246527777775 7.163845486111109  22 9.004340277777775  22 11  C 22 12.995659722222223  21.508246527777775 14.836154513888886  20.524739583333336 16.521484375  C 19.541232638888893 18.20681423611111  18.20681423611111 19.54123263888889  16.521484375 20.524739583333336  C 14.836154513888891 21.50824652777778  12.995659722222223 22  11 22  C 9.004340277777779 22  7.163845486111112 21.50824652777778  5.478515625 20.524739583333336  C 3.7931857638888893 19.54123263888889  2.4587673611111116 18.20681423611111  1.4752604166666667 16.521484375  C 0.49175347222222215 14.836154513888886  0 12.995659722222223  0 11  C 0 9.004340277777775  0.49175347222222215 7.163845486111109  1.4752604166666667 5.478515625  C 2.4587673611111116 3.7931857638888884  3.7931857638888893 2.458767361111109  5.478515625 1.4752604166666659  C 7.163845486111112 0.4917534722222203  9.004340277777779 0  11 0  C 12.995659722222223 0  14.836154513888891 0.4917534722222203  16.521484375 1.4752604166666659  C 18.20681423611111 2.458767361111109  19.541232638888893 3.7931857638888884  20.524739583333336 5.478515625  Z " fill-rule="nonzero" fill="#70b603" stroke="none" transform="matrix(1 0 0 1 1181 542 )" />
  </g>
</svg>