<?xml version="1.0" encoding="utf-8"?>
<svg version="1.1" xmlns:xlink="http://www.w3.org/1999/xlink" width="25px" height="22px" xmlns="http://www.w3.org/2000/svg">
  <g transform="matrix(1 0 0 1 -1189 -555 )">
    <path d="M 7.557091346153847 19.859375  C 7.647235576923077 19.765625  7.6923076923076925 19.645833333333332  7.6923076923076925 19.5  L 7.6923076923076925 16.5  C 7.6923076923076925 16.354166666666664  7.647235576923077 16.234375  7.557091346153847 16.140625  C 7.466947115384616 16.046875  7.351762820512821 16  7.211538461538461 16  L 2.403846153846154 16  C 2.263621794871795 16  2.1484375 16.046875  2.058293269230769 16.140625  C 1.9681490384615383 16.234375  1.9230769230769231 16.354166666666664  1.9230769230769231 16.5  L 1.9230769230769231 19.5  C 1.9230769230769231 19.645833333333332  1.9681490384615383 19.765625  2.058293269230769 19.859375  C 2.1484375 19.953125  2.263621794871795 20  2.403846153846154 20  L 7.211538461538461 20  C 7.351762820512821 20  7.466947115384616 19.953125  7.557091346153847 19.859375  Z M 7.557091346153847 13.859374999999998  C 7.647235576923077 13.765625  7.6923076923076925 13.64583333333333  7.6923076923076925 13.5  L 7.6923076923076925 10.5  C 7.6923076923076925 10.354166666666666  7.647235576923077 10.234375  7.557091346153847 10.140625  C 7.466947115384616 10.046875  7.351762820512821 10  7.211538461538461 10  L 2.403846153846154 10  C 2.263621794871795 10  2.1484375 10.046875  2.058293269230769 10.140625  C 1.9681490384615383 10.234375  1.9230769230769231 10.354166666666666  1.9230769230769231 10.5  L 1.9230769230769231 13.5  C 1.9230769230769231 13.64583333333333  1.9681490384615383 13.765625  2.058293269230769 13.859374999999998  C 2.1484375 13.953125  2.263621794871795 14  2.403846153846154 14  L 7.211538461538461 14  C 7.351762820512821 14  7.466947115384616 13.953125  7.557091346153847 13.859374999999998  Z M 15.249399038461538 19.859375  C 15.339543269230768 19.765625  15.384615384615385 19.645833333333332  15.384615384615385 19.5  L 15.384615384615385 16.5  C 15.384615384615385 16.354166666666664  15.339543269230768 16.234375  15.249399038461538 16.140625  C 15.159254807692307 16.046875  15.044070512820513 16  14.903846153846153 16  L 10.096153846153847 16  C 9.955929487179487 16  9.840745192307693 16.046875  9.750600961538462 16.140625  C 9.66045673076923 16.234375  9.615384615384617 16.354166666666664  9.615384615384617 16.5  L 9.615384615384617 19.5  C 9.615384615384617 19.645833333333332  9.66045673076923 19.765625  9.750600961538462 19.859375  C 9.840745192307693 19.953125  9.955929487179487 20  10.096153846153847 20  L 14.903846153846153 20  C 15.044070512820513 20  15.159254807692307 19.953125  15.249399038461538 19.859375  Z M 7.557091346153847 7.859375000000001  C 7.647235576923077 7.765625000000001  7.6923076923076925 7.645833333333333  7.6923076923076925 7.500000000000001  L 7.6923076923076925 4.500000000000001  C 7.6923076923076925 4.354166666666663  7.647235576923077 4.234375000000001  7.557091346153847 4.140625  C 7.466947115384616 4.046875  7.351762820512821 3.999999999999999  7.211538461538461 3.999999999999999  L 2.403846153846154 3.999999999999999  C 2.263621794871795 3.999999999999999  2.1484375 4.046875  2.058293269230769 4.140625  C 1.9681490384615383 4.234375000000001  1.9230769230769231 4.354166666666663  1.9230769230769231 4.500000000000001  L 1.9230769230769231 7.500000000000001  C 1.9230769230769231 7.645833333333333  1.9681490384615383 7.765625000000001  2.058293269230769 7.859375000000001  C 2.1484375 7.953124999999999  2.263621794871795 8  2.403846153846154 8  L 7.211538461538461 8  C 7.351762820512821 8  7.466947115384616 7.953124999999999  7.557091346153847 7.859375000000001  Z M 15.249399038461538 13.859374999999998  C 15.339543269230768 13.765625  15.384615384615385 13.64583333333333  15.384615384615385 13.5  L 15.384615384615385 10.5  C 15.384615384615385 10.354166666666666  15.339543269230768 10.234375  15.249399038461538 10.140625  C 15.159254807692307 10.046875  15.044070512820513 10  14.903846153846153 10  L 10.096153846153847 10  C 9.955929487179487 10  9.840745192307693 10.046875  9.750600961538462 10.140625  C 9.66045673076923 10.234375  9.615384615384617 10.354166666666666  9.615384615384617 10.5  L 9.615384615384617 13.5  C 9.615384615384617 13.64583333333333  9.66045673076923 13.765625  9.750600961538462 13.859374999999998  C 9.840745192307693 13.953125  9.955929487179487 14  10.096153846153847 14  L 14.903846153846153 14  C 15.044070512820513 14  15.159254807692307 13.953125  15.249399038461538 13.859374999999998  Z M 22.941706730769234 19.859375  C 23.03185096153846 19.765625  23.076923076923077 19.645833333333332  23.076923076923077 19.5  L 23.076923076923077 16.5  C 23.076923076923077 16.354166666666664  23.03185096153846 16.234375  22.941706730769234 16.140625  C 22.8515625 16.046875  22.736378205128208 16  22.596153846153847 16  L 17.78846153846154 16  C 17.648237179487182 16  17.533052884615387 16.046875  17.442908653846153 16.140625  C 17.352764423076923 16.234375  17.307692307692307 16.354166666666664  17.307692307692307 16.5  L 17.307692307692307 19.5  C 17.307692307692307 19.645833333333332  17.352764423076923 19.765625  17.442908653846153 19.859375  C 17.533052884615387 19.953125  17.648237179487182 20  17.78846153846154 20  L 22.596153846153847 20  C 22.736378205128208 20  22.8515625 19.953125  22.941706730769234 19.859375  Z M 15.249399038461538 7.859375000000001  C 15.339543269230768 7.765625000000001  15.384615384615385 7.645833333333333  15.384615384615385 7.500000000000001  L 15.384615384615385 4.500000000000001  C 15.384615384615385 4.354166666666663  15.339543269230768 4.234375000000001  15.249399038461538 4.140625  C 15.159254807692307 4.046875  15.044070512820513 3.999999999999999  14.903846153846153 3.999999999999999  L 10.096153846153847 3.999999999999999  C 9.955929487179487 3.999999999999999  9.840745192307693 4.046875  9.750600961538462 4.140625  C 9.66045673076923 4.234375000000001  9.615384615384617 4.354166666666663  9.615384615384617 4.500000000000001  L 9.615384615384617 7.500000000000001  C 9.615384615384617 7.645833333333333  9.66045673076923 7.765625000000001  9.750600961538462 7.859375000000001  C 9.840745192307693 7.953124999999999  9.955929487179487 8  10.096153846153847 8  L 14.903846153846153 8  C 15.044070512820513 8  15.159254807692307 7.953124999999999  15.249399038461538 7.859375000000001  Z M 22.941706730769234 13.859374999999998  C 23.03185096153846 13.765625  23.076923076923077 13.64583333333333  23.076923076923077 13.5  L 23.076923076923077 10.5  C 23.076923076923077 10.354166666666666  23.03185096153846 10.234375  22.941706730769234 10.140625  C 22.8515625 10.046875  22.736378205128208 10  22.596153846153847 10  L 17.78846153846154 10  C 17.648237179487182 10  17.533052884615387 10.046875  17.442908653846153 10.140625  C 17.352764423076923 10.234375  17.307692307692307 10.354166666666666  17.307692307692307 10.5  L 17.307692307692307 13.5  C 17.307692307692307 13.64583333333333  17.352764423076923 13.765625  17.442908653846153 13.859374999999998  C 17.533052884615387 13.953125  17.648237179487182 14  17.78846153846154 14  L 22.596153846153847 14  C 22.736378205128208 14  22.8515625 13.953125  22.941706730769234 13.859374999999998  Z M 22.941706730769234 7.859375000000001  C 23.03185096153846 7.765625000000001  23.076923076923077 7.645833333333333  23.076923076923077 7.500000000000001  L 23.076923076923077 4.500000000000001  C 23.076923076923077 4.354166666666663  23.03185096153846 4.234375000000001  22.941706730769234 4.140625  C 22.8515625 4.046875  22.736378205128208 3.999999999999999  22.596153846153847 3.999999999999999  L 17.78846153846154 3.999999999999999  C 17.648237179487182 3.999999999999999  17.533052884615387 4.046875  17.442908653846153 4.140625  C 17.352764423076923 4.234375000000001  17.307692307692307 4.354166666666663  17.307692307692307 4.500000000000001  L 17.307692307692307 7.500000000000001  C 17.307692307692307 7.645833333333333  17.352764423076923 7.765625000000001  17.442908653846153 7.859375000000001  C 17.533052884615387 7.953124999999999  17.648237179487182 8  17.78846153846154 8  L 22.596153846153847 8  C 22.736378205128208 8  22.8515625 7.953124999999999  22.941706730769234 7.859375000000001  Z M 24.293870192307693 0.7343749999999989  C 24.7646233974359 1.2239583333333315  25 1.8125000000000002  25 2.5  L 25 19.5  C 25 20.1875  24.7646233974359 20.776041666666668  24.293870192307693 21.265625  C 23.82311698717949 21.755208333333332  23.25721153846154 22  22.596153846153847 22  L 2.403846153846154 22  C 1.7427884615384617 22  1.176883012820513 21.755208333333332  0.7061298076923077 21.265625  C 0.23537660256410256 20.776041666666668  0 20.1875  0 19.5  L 0 2.5  C 0 1.8125000000000002  0.23537660256410256 1.2239583333333315  0.7061298076923077 0.7343749999999989  C 1.176883012820513 0.24479166666666385  1.7427884615384617 0  2.403846153846154 0  L 22.596153846153847 0  C 23.25721153846154 0  23.82311698717949 0.24479166666666385  24.293870192307693 0.7343749999999989  Z " fill-rule="nonzero" fill="#027db4" stroke="none" transform="matrix(1 0 0 1 1189 555 )" />
  </g>
</svg>