<?xml version="1.0" encoding="utf-8"?>
<svg version="1.1" xmlns:xlink="http://www.w3.org/1999/xlink" width="25px" height="25px" xmlns="http://www.w3.org/2000/svg">
  <g transform="matrix(1 0 0 1 -1159 -355 )">
    <path d="M 5.729166666666666 16.796875  L 6.575520833333333 15.950520833333332  L 9.049479166666668 18.424479166666668  L 8.203125 19.270833333333336  L 7.291666666666667 19.270833333333336  L 7.291666666666667 17.708333333333332  L 5.729166666666666 17.708333333333332  L 5.729166666666666 16.796875  Z M 12.825520833333334 9.651692708333334  C 13.00998263888889 9.467230902777777  13.172743055555555 9.45095486111111  13.313802083333334 9.602864583333334  C 13.465711805555555 9.74392361111111  13.44943576388889 9.906684027777777  13.264973958333334 10.091145833333334  L 8.528645833333332 14.827473958333332  C 8.344184027777779 15.01193576388889  8.181423611111112 15.028211805555552  8.040364583333332 14.876302083333332  C 7.888454861111112 14.735243055555552  7.904730902777779 14.57248263888889  8.089192708333332 14.388020833333332  L 12.825520833333334 9.651692708333334  Z M 4.166666666666666 20.833333333333336  L 8.854166666666668 20.833333333333336  L 17.708333333333336 11.979166666666666  L 13.020833333333334 7.291666666666666  L 4.166666666666666 16.145833333333332  L 4.166666666666666 20.833333333333336  Z M 14.0625 6.25  L 18.75 10.9375  L 20.247395833333336 9.440104166666666  C 20.55121527777778 9.136284722222221  20.703125 8.76736111111111  20.703125 8.333333333333334  C 20.703125 7.899305555555555  20.55121527777778 7.530381944444442  20.247395833333336 7.2265625  L 17.7734375 4.752604166666666  C 17.469618055555557 4.448784722222221  17.100694444444446 4.296875  16.666666666666664 4.296875  C 16.232638888888893 4.296875  15.863715277777779 4.448784722222221  15.559895833333334 4.752604166666666  L 14.0625 6.25  Z M 23.624674479166664 1.3753255208333344  C 24.54155815972222 2.2922092013888866  25 3.3962673611111076  25 4.6875  L 25 20.3125  C 25 21.603732638888886  24.54155815972222 22.707790798611114  23.624674479166664 23.624674479166664  C 22.707790798611114 24.54155815972222  21.603732638888893 25  20.3125 25  L 4.6875 25  C 3.396267361111111 25  2.2922092013888893 24.54155815972222  1.3753255208333335 23.624674479166664  C 0.45844184027777773 22.707790798611114  0 21.603732638888886  0 20.3125  L 0 4.6875  C 0 3.3962673611111076  0.45844184027777773 2.2922092013888866  1.3753255208333335 1.3753255208333344  C 2.2922092013888893 0.45844184027777624  3.396267361111111 0  4.6875 0  L 20.3125 0  C 21.603732638888893 0  22.707790798611114 0.45844184027777624  23.624674479166664 1.3753255208333344  Z " fill-rule="nonzero" fill="#000000" stroke="none" transform="matrix(1 0 0 1 1159 355 )" />
  </g>
</svg>