<?xml version="1.0" encoding="utf-8"?>
<svg version="1.1" xmlns:xlink="http://www.w3.org/1999/xlink" width="19px" height="20px" xmlns="http://www.w3.org/2000/svg">
  <g transform="matrix(1 0 0 1 -1217 -510 )">
    <path d="M 6.787642045454545 7.6171875  C 6.868607954545455 7.6953125  6.909090909090909 7.795138888888888  6.909090909090909 7.916666666666668  L 6.909090909090909 15.416666666666668  C 6.909090909090909 15.538194444444445  6.868607954545455 15.638020833333332  6.787642045454545 15.716145833333332  C 6.706676136363636 15.794270833333332  6.603219696969698 15.833333333333332  6.477272727272727 15.833333333333332  L 5.613636363636364 15.833333333333332  C 5.4876893939393945 15.833333333333332  5.384232954545456 15.794270833333332  5.303267045454545 15.716145833333332  C 5.222301136363636 15.638020833333332  5.181818181818182 15.538194444444445  5.181818181818182 15.416666666666668  L 5.181818181818182 7.916666666666668  C 5.181818181818182 7.795138888888888  5.222301136363636 7.6953125  5.303267045454545 7.6171875  C 5.384232954545456 7.5390625  5.4876893939393945 7.5  5.613636363636364 7.5  L 6.477272727272727 7.5  C 6.603219696969698 7.5  6.706676136363636 7.5390625  6.787642045454545 7.6171875  Z M 10.2421875 7.6171875  C 10.32315340909091 7.6953125  10.363636363636363 7.795138888888888  10.363636363636363 7.916666666666668  L 10.363636363636363 15.416666666666668  C 10.363636363636363 15.538194444444445  10.32315340909091 15.638020833333332  10.2421875 15.716145833333332  C 10.16122159090909 15.794270833333332  10.057765151515152 15.833333333333332  9.931818181818182 15.833333333333332  L 9.068181818181818 15.833333333333332  C 8.94223484848485 15.833333333333332  8.83877840909091 15.794270833333332  8.7578125 15.716145833333332  C 8.67684659090909 15.638020833333332  8.636363636363637 15.538194444444445  8.636363636363637 15.416666666666668  L 8.636363636363637 7.916666666666668  C 8.636363636363637 7.795138888888888  8.67684659090909 7.6953125  8.7578125 7.6171875  C 8.83877840909091 7.5390625  8.94223484848485 7.5  9.068181818181818 7.5  L 9.931818181818182 7.5  C 10.057765151515152 7.5  10.16122159090909 7.5390625  10.2421875 7.6171875  Z M 13.696732954545453 7.6171875  C 13.777698863636363 7.6953125  13.818181818181818 7.795138888888888  13.818181818181818 7.916666666666668  L 13.818181818181818 15.416666666666668  C 13.818181818181818 15.538194444444445  13.777698863636363 15.638020833333332  13.696732954545453 15.716145833333332  C 13.615767045454547 15.794270833333332  13.512310606060606 15.833333333333332  13.386363636363637 15.833333333333332  L 12.522727272727272 15.833333333333332  C 12.396780303030303 15.833333333333332  12.293323863636363 15.794270833333332  12.212357954545453 15.716145833333332  C 12.131392045454547 15.638020833333332  12.09090909090909 15.538194444444445  12.09090909090909 15.416666666666668  L 12.09090909090909 7.916666666666668  C 12.09090909090909 7.795138888888888  12.131392045454547 7.6953125  12.212357954545453 7.6171875  C 12.293323863636363 7.5390625  12.396780303030303 7.5  12.522727272727272 7.5  L 13.386363636363637 7.5  C 13.512310606060606 7.5  13.615767045454547 7.5390625  13.696732954545453 7.6171875  Z M 15.450994318181818 17.87109375  C 15.513967803030303 17.71050347222222  15.545454545454547 17.53472222222222  15.545454545454547 17.34375  L 15.545454545454547 5  L 3.4545454545454546 5  L 3.4545454545454546 17.34375  C 3.4545454545454546 17.53472222222222  3.4860321969696972 17.71050347222222  3.549005681818182 17.87109375  C 3.611979166666667 18.03168402777778  3.6772017045454546 18.14887152777778  3.7446732954545454 18.22265625  C 3.8121448863636367 18.29644097222222  3.859375 18.333333333333332  3.8863636363636367 18  L 15.113636363636363 18  C 15.140625 18.333333333333332  15.187855113636363 18.29644097222222  15.255326704545453 18.22265625  C 15.322798295454547 18.14887152777778  15.388020833333336 18.03168402777778  15.450994318181818 17.87109375  Z M 7.138494318181818 1.8098958333333326  L 6.477272727272727 3.3333333333333326  L 12.522727272727272 3.3333333333333326  L 11.875 1.8098958333333326  C 11.812026515151517 1.7317708333333326  11.735558712121213 1.6840277777777768  11.64559659090909 1.6666666666666674  L 7.367897727272727 1.6666666666666674  C 7.277935606060606 1.6840277777777768  7.2014678030303045 1.7317708333333326  7.138494318181818 1.8098958333333326  Z M 18.878551136363637 3.4505208333333326  C 18.959517045454547 3.5286458333333326  19 3.628472222222221  19 3.75  L 19 4.583333333333332  C 19 4.704861111111109  18.959517045454547 4.8046875  18.878551136363637 4.8828125  C 18.797585227272727 4.9609375  18.69412878787879 5  18.56818181818182 5  L 17 5  L 17 17.34375  C 17.272727272727273 18.06423611111111  17.06131628787879 18.68706597222222  16.63849431818182 19.212239583333332  C 16.21567234848485 19.737413194444443  15.707386363636363 20  15.113636363636363 20  L 3.8863636363636367 20  C 3.2926136363636367 20  2.7843276515151523 19.74609375  2.3615056818181817 19.23828125  C 1.9386837121212124 18.73046875  1.7272727272727273 18.116319444444443  2 17.395833333333332  L 2 5  L 0.4318181818181818 5  C 0.3058712121212121 5  0.20241477272727273 4.9609375  0.12144886363636365 4.8828125  C 0.040482954545454544 4.8046875  0 4.704861111111109  0 4.583333333333332  L 0 3.75  C 0 3.628472222222221  0.040482954545454544 3.5286458333333326  0.12144886363636365 3.4505208333333326  C 0.20241477272727273 3.3723958333333326  0.3058712121212121 3.3333333333333326  0.4318181818181818 3.3333333333333326  L 4.6015625 3.3333333333333326  L 5.546164772727273 1.1588541666666674  C 5.681107954545456 0.8376736111111094  5.9240056818181825 0.5642361111111094  6.274857954545455 0.3385416666666674  C 6.6257102272727275 0.11284722222222099  6.981060606060606 0  7.340909090909091 0  L 11.65909090909091 0  C 12.018939393939396 0  12.374289772727272 0.11284722222222099  12.725142045454547 0.3385416666666674  C 13.075994318181818 0.5642361111111094  13.318892045454547 0.8376736111111094  13.453835227272728 1.1588541666666674  L 14.3984375 3.3333333333333326  L 18.56818181818182 3.3333333333333326  C 18.69412878787879 3.3333333333333326  18.797585227272727 3.3723958333333326  18.878551136363637 3.4505208333333326  Z " fill-rule="nonzero" fill="#e03b6f" stroke="none" transform="matrix(1 0 0 1 1217 510 )" />
  </g>
</svg>