<?xml version="1.0" encoding="utf-8"?>
<svg version="1.1" xmlns:xlink="http://www.w3.org/1999/xlink" width="25px" height="25px" xmlns="http://www.w3.org/2000/svg">
  <g transform="matrix(1 0 0 1 -1197 -705 )">
    <path d="M 20.60546875 10.595703125  C 20.80078125 10.400390625  20.8984375 10.15625  20.8984375 9.86328125  C 20.8984375 9.559461805555555  20.80078125 9.309895833333334  20.60546875 9.114583333333334  L 19.124348958333336 7.649739583333334  C 18.918185763888893 7.443576388888887  18.674045138888893 7.340494791666666  18.391927083333336 7.340494791666666  C 18.10980902777778 7.340494791666666  17.86566840277778 7.443576388888887  17.659505208333336 7.649739583333334  L 11.018880208333332 14.274088541666668  L 7.340494791666667 10.595703125  C 7.134331597222222 10.389539930555555  6.890190972222222 10.286458333333334  6.608072916666667 10.286458333333334  C 6.325954861111112 10.286458333333334  6.081814236111112 10.389539930555555  5.875651041666666 10.595703125  L 4.39453125 12.060546875  C 4.19921875 12.255859375  4.101562500000001 12.505425347222221  4.1015625 12.809244791666668  C 4.101562500000001 13.102213541666668  4.19921875 13.346354166666668  4.39453125 13.541666666666668  L 10.286458333333332 19.43359375  C 10.492621527777779 19.639756944444443  10.736762152777779 19.742838541666664  11.018880208333332 19.742838541666664  C 11.311848958333332 19.742838541666664  11.561414930555557 19.639756944444443  11.767578125 19.43359375  L 20.60546875 10.595703125  Z M 23.323567708333336 6.2255859375  C 24.441189236111107 8.140733506944443  25 10.232204861111107  25 12.5  C 25 14.76779513888889  24.441189236111107 16.859266493055554  23.323567708333336 18.7744140625  C 22.205946180555557 20.689561631944446  20.689561631944446 22.205946180555554  18.7744140625 23.323567708333336  C 16.859266493055557 24.441189236111114  14.76779513888889 25  12.5 25  C 10.232204861111112 25  8.140733506944445 24.441189236111114  6.2255859375 23.323567708333336  C 4.310438368055556 22.205946180555554  2.7940538194444446 20.689561631944446  1.6764322916666667 18.7744140625  C 0.5588107638888888 16.859266493055554  0 14.76779513888889  0 12.5  C 0 10.232204861111107  0.5588107638888888 8.140733506944443  1.6764322916666667 6.2255859375  C 2.7940538194444446 4.310438368055555  4.310438368055556 2.794053819444442  6.2255859375 1.6764322916666656  C 8.140733506944445 0.5588107638888867  10.232204861111112 0  12.5 0  C 14.76779513888889 0  16.859266493055557 0.5588107638888867  18.7744140625 1.6764322916666656  C 20.689561631944446 2.794053819444442  22.205946180555557 4.310438368055555  23.323567708333336 6.2255859375  Z " fill-rule="nonzero" fill="#039d12" stroke="none" transform="matrix(1 0 0 1 1197 705 )" />
  </g>
</svg>