<?xml version="1.0" encoding="utf-8"?>
<svg version="1.1" xmlns:xlink="http://www.w3.org/1999/xlink" width="28px" height="22px" xmlns="http://www.w3.org/2000/svg">
  <g transform="matrix(1 0 0 1 -1256 -456 )">
    <path d="M 21.21875 19.89453125  C 21.431891025641026 19.71310763888889  21.53846153846154 19.49826388888889  21.53846153846154 19.25  C 21.53846153846154 19.00173611111111  21.431891025641026 18.78689236111111  21.21875 18.60546875  C 21.005608974358978 18.42404513888889  20.75320512820513 18.333333333333336  20.46153846153846 18.333333333333336  C 20.169871794871796 18.333333333333336  19.91746794871795 18.42404513888889  19.704326923076923 18.60546875  C 19.4911858974359 18.78689236111111  19.384615384615383 19.00173611111111  19.384615384615383 19.25  C 19.384615384615383 19.49826388888889  19.4911858974359 19.71310763888889  19.704326923076923 19.89453125  C 19.91746794871795 20.07595486111111  20.169871794871796 20.166666666666664  20.46153846153846 20.166666666666664  C 20.75320512820513 20.166666666666664  21.005608974358978 20.07595486111111  21.21875 19.89453125  Z M 25.526442307692307 19.89453125  C 25.739583333333332 19.71310763888889  25.846153846153847 19.49826388888889  25.846153846153847 19.25  C 25.846153846153847 19.00173611111111  25.739583333333332 18.78689236111111  25.526442307692307 18.60546875  C 25.313301282051285 18.42404513888889  25.060897435897438 18.333333333333336  24.769230769230766 18.333333333333336  C 24.477564102564102 18.333333333333336  24.22516025641026 18.42404513888889  24.012019230769234 18.60546875  C 23.798878205128208 18.78689236111111  23.692307692307693 19.00173611111111  23.692307692307693 19.25  C 23.692307692307693 19.49826388888889  23.798878205128208 19.71310763888889  24.012019230769234 19.89453125  C 24.22516025641026 20.07595486111111  24.477564102564102 20.166666666666664  24.769230769230766 20.166666666666664  C 25.060897435897438 20.166666666666664  25.313301282051285 20.07595486111111  25.526442307692307 19.89453125  Z M 27.528846153846153 15.067708333333332  C 27.84294871794872 15.335069444444441  28 15.659722222222223  28 16.041666666666668  L 28 20.625  C 28 21.006944444444446  27.84294871794872 21.33159722222222  27.528846153846153 21.598958333333336  C 27.21474358974359 21.866319444444446  26.833333333333336 22  26.384615384615383 22  L 1.6153846153846154 22  C 1.1666666666666667 22  0.7852564102564104 21.866319444444446  0.47115384615384615 21.598958333333336  C 0.15705128205128202 21.33159722222222  0 21.006944444444446  0 20.625  L 0 16.041666666666668  C 0 15.659722222222223  0.15705128205128202 15.335069444444441  0.47115384615384615 15.067708333333332  C 0.7852564102564104 14.800347222222223  1.1666666666666667 14.666666666666668  1.6153846153846154 14.666666666666668  L 9.439903846153847 14.666666666666668  L 11.711538461538462 16.614583333333336  C 12.362179487179489 17.149305555555554  13.125 17.416666666666664  14 17.416666666666664  C 14.875 17.416666666666664  15.637820512820513 17.149305555555554  16.28846153846154 16.614583333333336  L 18.576923076923077 14.666666666666668  L 26.384615384615383 14.666666666666668  C 26.833333333333336 14.666666666666668  27.21474358974359 14.800347222222223  27.528846153846153 15.067708333333332  Z M 21.53846153846154 7.333333333333334  C 22.009615384615383 7.333333333333334  22.340544871794876 7.51953125  22.53125 7.891927083333334  C 22.72195512820513 8.28342013888889  22.64342948717949 8.617621527777777  22.295673076923077 8.89453125  L 14.75721153846154 15.311197916666668  C 14.55528846153846 15.492621527777777  14.302884615384617 15.583333333333332  14 15.583333333333332  C 13.697115384615383 15.583333333333332  13.444711538461538 15.492621527777777  13.242788461538462 15.311197916666668  L 5.704326923076923 8.89453125  C 5.356570512820513 8.617621527777777  5.278044871794872 8.28342013888889  5.46875 7.891927083333334  C 5.6594551282051295 7.51953125  5.990384615384615 7.333333333333334  6.461538461538462 7.333333333333334  L 10.76923076923077 7.333333333333334  L 10.76923076923077 0.9166666666666659  C 10.76923076923077 0.6684027777777748  10.875801282051283 0.4535590277777748  11.088942307692308 0.27213541666666585  C 11.302083333333334 0.09071180555555691  11.55448717948718 0  11.846153846153847 0  L 16.153846153846153 0  C 16.44551282051282 0  16.697916666666668 0.09071180555555691  16.911057692307693 0.27213541666666585  C 17.12419871794872 0.4535590277777748  17.230769230769234 0.6684027777777748  17.230769230769234 0.9166666666666659  L 17.230769230769234 7.333333333333334  L 21.53846153846154 7.333333333333334  Z " fill-rule="nonzero" fill="#000000" stroke="none" transform="matrix(1 0 0 1 1256 456 )" />
  </g>
</svg>