<?xml version="1.0" encoding="utf-8"?>
<svg version="1.1" xmlns:xlink="http://www.w3.org/1999/xlink" width="37px" height="35px" xmlns="http://www.w3.org/2000/svg">
  <g transform="matrix(1 0 0 1 -472 -263 )">
    <path d="M 28.0390625 31.784374999999997  C 28.320713141025642 31.507291666666664  28.461538461538463 31.179166666666664  28.461538461538463 30.8  C 28.461538461538463 30.420833333333338  28.320713141025642 30.092708333333334  28.0390625 29.815624999999997  C 27.75741185897436 29.538541666666664  27.42387820512821 29.4  27.038461538461537 29.4  C 26.653044871794872 29.4  26.31951121794872 29.538541666666664  26.037860576923077 29.815624999999997  C 25.75620993589744 30.092708333333334  25.615384615384613 30.420833333333338  25.615384615384613 30.8  C 25.615384615384613 31.179166666666664  25.75620993589744 31.507291666666664  26.037860576923077 31.784374999999997  C 26.31951121794872 32.061458333333334  26.653044871794872 32.2  27.038461538461537 32.2  C 27.42387820512821 32.2  27.75741185897436 32.061458333333334  28.0390625 31.784374999999997  Z M 33.73137019230769 31.784374999999997  C 34.01302083333333 31.507291666666664  34.15384615384615 31.179166666666664  34.15384615384615 30.8  C 34.15384615384615 30.420833333333338  34.01302083333333 30.092708333333334  33.73137019230769 29.815624999999997  C 33.44971955128206 29.538541666666664  33.1161858974359 29.4  32.730769230769226 29.4  C 32.34535256410256 29.4  32.011818910256416 29.538541666666664  31.73016826923077 29.815624999999997  C 31.44851762820513 30.092708333333334  31.307692307692307 30.420833333333338  31.307692307692307 30.8  C 31.307692307692307 31.179166666666664  31.44851762820513 31.507291666666664  31.73016826923077 31.784374999999997  C 32.011818910256416 32.061458333333334  32.34535256410256 32.2  32.730769230769226 32.2  C 33.1161858974359 32.2  33.44971955128206 32.061458333333334  33.73137019230769 31.784374999999997  Z M 36.37740384615385 24.4125  C 36.79246794871795 24.820833333333326  37 25.316666666666663  37 25.9  L 37 32.9  C 37 33.483333333333334  36.79246794871795 33.979166666666664  36.37740384615385 34.3875  C 35.962339743589745 34.795833333333334  35.458333333333336 35  34.86538461538461 35  L 2.1346153846153846 35  C 1.5416666666666667 35  1.0376602564102566 34.795833333333334  0.6225961538461539 34.3875  C 0.20753205128205124 33.979166666666664  0 33.483333333333334  0 32.9  L 0 25.9  C 0 25.316666666666663  0.20753205128205124 24.820833333333326  0.6225961538461539 24.4125  C 1.0376602564102566 24.00416666666667  1.5416666666666667 23.799999999999997  2.1346153846153846 23.799999999999997  L 11.629206730769232 23.799999999999997  C 11.940504807692307 24.616666666666667  12.463040865384615 25.287499999999998  13.196814903846153 25.8125  C 13.930588942307693 26.3375  14.74959935897436 26.6  15.653846153846153 26.6  L 21.346153846153843 26.6  C 22.250400641025642 26.6  23.069411057692307 26.3375  23.803185096153843 25.8125  C 24.536959134615387 25.287499999999998  25.059495192307693 24.616666666666667  25.37079326923077 23.799999999999997  L 34.86538461538461 23.799999999999997  C 35.458333333333336 23.799999999999997  35.962339743589745 24.00416666666667  36.37740384615385 24.4125  Z M 29.462139423076923 10.215625  C 29.921674679487182 10.653124999999998  30.02544070512821 11.15625  29.7734375 11.724999999999998  C 29.5214342948718 12.30833333333333  29.084134615384613 12.6  28.461538461538463 12.6  L 22.76923076923077 12.6  L 22.76923076923077 22.400000000000002  C 22.76923076923077 22.779166666666665  22.62840544871795 23.107291666666665  22.346754807692307 23.384375000000002  C 22.065104166666668 23.661458333333332  21.731570512820515 23.799999999999997  21.346153846153843 23.799999999999997  L 15.653846153846153 23.799999999999997  C 15.268429487179489 23.799999999999997  14.934895833333334 23.661458333333332  14.653245192307693 23.384375000000002  C 14.371594551282053 23.107291666666665  14.230769230769232 22.779166666666665  14.230769230769232 22.400000000000002  L 14.230769230769232 12.6  L 8.538461538461538 12.6  C 7.915865384615384 12.6  7.478565705128206 12.30833333333333  7.2265625 11.724999999999998  C 6.974559294871796 11.15625  7.078325320512821 10.653124999999998  7.537860576923077 10.215625  L 17.49939903846154 0.4156249999999989  C 17.76622596153846 0.138541666666665  18.099759615384613 0  18.5 0  C 18.900240384615387 0  19.233774038461537 0.138541666666665  19.500600961538463 0.4156249999999989  L 29.462139423076923 10.215625  Z " fill-rule="nonzero" fill="#027db4" stroke="none" transform="matrix(1 0 0 1 472 263 )" />
  </g>
</svg>