<svg xmlns:xlink="http://www.w3.org/1999/xlink" xmlns="http://www.w3.org/2000/svg" version="1.1" width="20px" height="20px" class="mdl-js">
  <g transform="matrix(1 0 0 1 -945 -310 )">
    <path d="M 19.205729166666668 6.119791666666668  C 19.735243055555554 7.352430555555555  20 8.645833333333332  20 10  C 20 11.354166666666664  19.735243055555554 12.647569444444443  19.205729166666668 13.880208333333336  C 18.67621527777778 15.112847222222223  17.96440972222222 16.17621527777778  17.0703125 17.0703125  C 16.17621527777778 17.96440972222222  15.112847222222223 18.67621527777778  13.880208333333332 19.205729166666668  C 12.647569444444446 19.735243055555557  11.354166666666668 20  10 20  C 8.506944444444445 20  7.087673611111112 19.68532986111111  5.7421875 19.055989583333332  C 4.396701388888889 18.426649305555557  3.250868055555556 17.5390625  2.3046875 16.393229166666668  C 2.243923611111111 16.30642361111111  2.215711805555556 16.20876736111111  2.2200520833333335 16.100260416666668  C 2.224392361111111 15.991753472222223  2.2612847222222223 15.902777777777777  2.3307291666666665 15.833333333333332  L 4.114583333333333 14.036458333333336  C 4.201388888888889 13.958333333333336  4.309895833333333 13.919270833333336  4.440104166666667 13.919270833333336  C 4.578993055555555 13.936631944444443  4.678819444444445 13.988715277777777  4.739583333333333 14.075520833333336  C 5.373263888888889 14.90017361111111  6.150173611111112 15.538194444444445  7.0703125 15.989583333333332  C 7.990451388888889 16.44097222222222  8.96701388888889 16.666666666666668  10 16.666666666666668  C 10.902777777777779 16.666666666666668  11.764322916666668 16.490885416666668  12.584635416666668 16.139322916666668  C 13.404947916666668 15.787760416666668  14.114583333333332 15.3125  14.713541666666668 14.713541666666664  C 15.3125 14.114583333333336  15.787760416666668 13.404947916666664  16.139322916666668 12.584635416666664  C 16.490885416666668 11.764322916666664  16.666666666666668 10.902777777777777  16.666666666666668 10  C 16.666666666666668 9.097222222222221  16.490885416666668 8.235677083333332  16.139322916666668 7.415364583333332  C 15.787760416666668 6.595052083333332  15.3125 5.885416666666668  14.713541666666668 5.286458333333332  C 14.114583333333332 4.6875  13.404947916666668 4.212239583333332  12.584635416666668 3.8606770833333326  C 11.764322916666668 3.5091145833333326  10.902777777777779 3.3333333333333326  10 3.3333333333333326  C 9.149305555555557 3.3333333333333326  8.333333333333334 3.487413194444444  7.552083333333334 3.7955729166666674  C 6.770833333333334 4.103732638888886  6.076388888888889 4.544270833333332  5.46875 5.1171875  L 7.252604166666666 6.9140625  C 7.521701388888889 7.174479166666668  7.582465277777778 7.473958333333332  7.434895833333334 7.8125  C 7.287326388888889 8.159722222222223  7.03125 8.333333333333332  6.666666666666666 8.333333333333332  L 0.8333333333333333 8.333333333333332  C 0.607638888888889 8.333333333333332  0.4123263888888889 8.250868055555555  0.24739583333333331 8.0859375  C 0.08246527777777778 7.921006944444445  0 7.725694444444445  0 7.5  L 0 1.6666666666666674  C 0 1.3020833333333326  0.17361111111111108 1.0460069444444442  0.5208333333333334 0.8984375  C 0.859375 0.7508680555555536  1.1588541666666667 0.8116319444444442  1.4192708333333335 1.0807291666666674  L 3.111979166666667 2.7604166666666674  C 4.040798611111112 1.8836805555555536  5.101996527777778 1.2044270833333326  6.295572916666666 0.72265625  C 7.489149305555557 0.2408854166666674  8.723958333333334 0  10 0  C 11.354166666666668 0  12.647569444444446 0.2647569444444442  13.880208333333332 0.7942708333333326  C 15.112847222222223 1.323784722222221  16.17621527777778 2.035590277777777  17.0703125 2.9296875  C 17.96440972222222 3.823784722222221  18.67621527777778 4.887152777777777  19.205729166666668 6.119791666666668  Z M 11.549479166666668 5.950520833333332  C 11.627604166666668 6.028645833333332  11.666666666666668 6.128472222222221  11.666666666666668 6.25  L 11.666666666666668 12.083333333333336  C 11.666666666666668 12.20486111111111  11.627604166666668 12.3046875  11.549479166666668 12.3828125  C 11.471354166666668 12.4609375  11.371527777777779 12.5  11.25 12.5  L 7.083333333333334 12.5  C 6.961805555555557 12.5  6.861979166666666 12.4609375  6.783854166666666 12.3828125  C 6.705729166666666 12.3046875  6.666666666666666 12.20486111111111  6.666666666666666 12.083333333333336  L 6.666666666666666 11.25  C 6.666666666666666 11.128472222222223  6.705729166666666 11.028645833333336  6.783854166666666 10.950520833333336  C 6.861979166666666 10.872395833333336  6.961805555555557 10.833333333333336  7.083333333333334 10.833333333333336  L 10 10.833333333333336  L 10 6.25  C 10 6.128472222222221  10.0390625 6.028645833333332  10.1171875 5.950520833333332  C 10.195312500000002 5.872395833333332  10.295138888888891 5.833333333333332  10.416666666666668 5.833333333333332  L 11.25 5.833333333333332  C 11.371527777777779 5.833333333333332  11.471354166666668 5.872395833333332  11.549479166666668 5.950520833333332  Z " fill-rule="nonzero" fill="#000000" stroke="none" transform="matrix(1 0 0 1 945 310 )"/>
  </g>
</svg>