<svg xmlns:xlink="http://www.w3.org/1999/xlink" xmlns="http://www.w3.org/2000/svg" version="1.1" width="20px" height="19px" class="mdl-js">
  <g transform="matrix(1 0 0 1 -984 -1127 )">
    <path d="M 15.15625 17.181640625  C 15.308493589743591 17.02495659722222  15.384615384615385 16.83940972222222  15.384615384615385 16.625  C 15.384615384615385 16.41059027777778  15.308493589743591 16.22504340277778  15.15625 16.068359375  C 15.004006410256412 15.911675347222221  14.823717948717952 15.833333333333334  14.615384615384615 15.833333333333334  C 14.407051282051281 15.833333333333334  14.226762820512821 15.911675347222221  14.074519230769232 16.068359375  C 13.922275641025642 16.22504340277778  13.846153846153847 16.41059027777778  13.846153846153847 16.625  C 13.846153846153847 16.83940972222222  13.922275641025642 17.02495659722222  14.074519230769232 17.181640625  C 14.226762820512821 17.33832465277778  14.407051282051281 17.416666666666664  14.615384615384615 17.416666666666664  C 14.823717948717952 17.416666666666664  15.004006410256412 17.33832465277778  15.15625 17.181640625  Z M 18.233173076923077 17.181640625  C 18.385416666666664 17.02495659722222  18.461538461538463 16.83940972222222  18.461538461538463 16.625  C 18.461538461538463 16.41059027777778  18.385416666666664 16.22504340277778  18.233173076923077 16.068359375  C 18.08092948717949 15.911675347222221  17.900641025641026 15.833333333333334  17.692307692307693 15.833333333333334  C 17.483974358974358 15.833333333333334  17.303685897435898 15.911675347222221  17.151442307692307 16.068359375  C 16.99919871794872 16.22504340277778  16.923076923076923 16.41059027777778  16.923076923076923 16.625  C 16.923076923076923 16.83940972222222  16.99919871794872 17.02495659722222  17.151442307692307 17.181640625  C 17.303685897435898 17.33832465277778  17.483974358974358 17.416666666666664  17.692307692307693 17.416666666666664  C 17.900641025641026 17.416666666666664  18.08092948717949 17.33832465277778  18.233173076923077 17.181640625  Z M 19.663461538461537 13.013020833333332  C 19.887820512820515 13.243923611111107  20 13.524305555555555  20 13.854166666666668  L 20 17.8125  C 20 18.14236111111111  19.887820512820515 18.422743055555554  19.663461538461537 18.653645833333336  C 19.439102564102566 18.88454861111111  19.16666666666667 19  18.846153846153847 19  L 1.153846153846154 19  C 0.8333333333333335 19  0.560897435897436 18.88454861111111  0.3365384615384615 18.653645833333336  C 0.11217948717948717 18.422743055555554  0 18.14236111111111  0 17.8125  L 0 13.854166666666668  C 0 13.524305555555555  0.11217948717948717 13.243923611111107  0.3365384615384615 13.013020833333332  C 0.560897435897436 12.782118055555555  0.8333333333333335 12.666666666666668  1.153846153846154 12.666666666666668  L 6.742788461538462 12.666666666666668  L 8.365384615384615 14.348958333333334  C 8.830128205128206 14.810763888888888  9.375 15.041666666666666  10 15.041666666666666  C 10.625 15.041666666666666  11.169871794871796 14.810763888888888  11.634615384615385 14.348958333333334  L 13.269230769230768 12.666666666666668  L 18.846153846153847 12.666666666666668  C 19.16666666666667 12.666666666666668  19.439102564102566 12.782118055555555  19.663461538461537 13.013020833333332  Z M 15.384615384615385 6.333333333333334  C 15.721153846153847 6.333333333333334  15.957532051282053 6.494140625  16.09375 6.815755208333334  C 16.229967948717952 7.153862847222222  16.173878205128208 7.442491319444444  15.925480769230768 7.681640625  L 10.540865384615385 13.223307291666668  C 10.396634615384615 13.379991319444445  10.216346153846153 13.458333333333332  10 13.458333333333332  C 9.783653846153847 13.458333333333332  9.603365384615385 13.379991319444445  9.459134615384615 13.223307291666668  L 4.074519230769231 7.681640625  C 3.826121794871795 7.442491319444444  3.770032051282052 7.153862847222222  3.90625 6.815755208333334  C 4.042467948717949 6.494140625  4.278846153846153 6.333333333333334  4.615384615384616 6.333333333333334  L 7.6923076923076925 6.333333333333334  L 7.6923076923076925 0.791666666666666  C 7.6923076923076925 0.5772569444444419  7.768429487179488 0.39171006944444187  7.920673076923077 0.23502604166666596  C 8.072916666666668 0.07834201388889006  8.25320512820513 0  8.461538461538462 0  L 11.538461538461537 0  C 11.746794871794872 0  11.927083333333336 0.07834201388889006  12.079326923076923 0.23502604166666596  C 12.231570512820513 0.39171006944444187  12.307692307692308 0.5772569444444419  12.307692307692308 0.791666666666666  L 12.307692307692308 6.333333333333334  L 15.384615384615385 6.333333333333334  Z " fill-rule="nonzero" fill="#027db4" stroke="none" transform="matrix(1 0 0 1 984 1127 )"/>
  </g>
</svg>