<?xml version="1.0" encoding="utf-8"?>
<svg version="1.1" xmlns:xlink="http://www.w3.org/1999/xlink" width="44px" height="23px" xmlns="http://www.w3.org/2000/svg">
  <g transform="matrix(1 0 0 1 -1282 -487 )">
    <path d="M 29.115625 12.390269886363637  C 29.260763888888892 12.286813446969695  29.333333333333332 12.16429924242424  29.333333333333332 12.022727272727272  C 29.333333333333332 11.870265151515152  29.264583333333334 11.74502840909091  29.127083333333335 11.647017045454545  L 21.060416666666665 5.897017045454545  C 20.922916666666666 5.799005681818181  20.747222222222224 5.75  20.533333333333335 5.75  C 20.319444444444446 5.75  20.143750000000004 5.799005681818181  20.00625 5.897017045454545  L 11.962499999999999 11.630681818181817  C 11.809722222222224 11.761363636363637  11.733333333333333 11.892045454545455  11.733333333333333 12.022727272727272  C 11.733333333333333 12.175189393939393  11.802083333333334 12.300426136363637  11.939583333333333 12.3984375  C 12.077083333333333 12.496448863636363  12.25277777777778 12.545454545454545  12.466666666666667 12.545454545454545  L 17.6 12.545454545454545  L 17.6 18.295454545454543  C 17.6 18.437026515151512  17.672569444444445 18.55954071969697  17.817708333333336 18.66299715909091  C 17.962847222222223 18.766453598484848  18.134722222222223 18.818181818181817  18.333333333333336 18.818181818181817  L 22.733333333333334 18.818181818181817  C 22.931944444444447 18.818181818181817  23.103819444444447 18.766453598484848  23.248958333333334 18.66299715909091  C 23.39409722222222 18.55954071969697  23.466666666666665 18.437026515151512  23.466666666666665 18.295454545454543  L 23.466666666666665 12.545454545454545  L 28.6 12.545454545454545  C 28.798611111111114 12.545454545454545  28.970486111111114 12.493726325757576  29.115625 12.390269886363637  Z M 42.08645833333333 12.831321022727272  C 43.36215277777778 13.969341856060607  44.00000000000001 15.267992424242422  44 16.727272727272727  C 44.00000000000001 18.458806818181817  43.14062500000001 19.937144886363637  41.421875 21.162286931818183  C 39.70312500000001 22.387428977272727  37.62916666666667 23  35.2 23  L 10.266666666666667 23  C 7.440277777777777 23  5.022569444444445 22.28397253787879  3.013541666666667 20.851917613636363  C 1.004513888888889 19.419862689393938  0 17.696496212121215  0 15.681818181818183  C 0 14.26609848484848  0.5347222222222222 12.959280303030305  1.6041666666666667 11.761363636363637  C 2.673611111111111 10.563446969696965  4.1097222222222225 9.665009469696965  5.9125 9.066051136363637  C 5.881944444444445 8.739346590909092  5.866666666666666 8.505208333333332  5.866666666666666 8.363636363636363  C 5.866666666666666 6.05492424242424  7.012499999999999 4.083806818181819  9.304166666666667 2.4502840909090917  C 11.595833333333333 0.8167613636363639  14.361111111111114 0  17.6 0  C 19.983333333333334 0  22.164236111111116 0.4737215909090916  24.142708333333335 1.4211647727272723  C 26.121180555555558 2.3686079545454555  27.56111111111111 3.6264204545454555  28.4625 5.1946022727272725  C 29.547222222222224 4.519412878787877  30.81527777777778 4.181818181818181  32.266666666666666 4.181818181818181  C 33.88611111111111 4.181818181818181  35.26875 4.590198863636364  36.41458333333333 5.4069602272727275  C 37.56041666666667 6.223721590909092  38.13333333333333 7.209280303030301  38.13333333333333 8.363636363636363  C 38.13333333333333 9.191287878787877  37.82013888888889 9.942708333333332  37.19375 10.617897727272728  C 39.179861111111116 10.955492424242424  40.81076388888889 11.693300189393938  42.08645833333333 12.831321022727272  Z " fill-rule="nonzero" fill="#02a7f0" stroke="none" transform="matrix(1 0 0 1 1282 487 )" />
  </g>
</svg>