<svg xmlns:xlink="http://www.w3.org/1999/xlink" xmlns="http://www.w3.org/2000/svg" version="1.1" width="20px" height="20px" class="mdl-js">
  <g transform="matrix(1 0 0 1 -1024 -1127 )">
    <path d="M 4.583333333333333 13.4375  L 5.260416666666666 12.760416666666664  L 7.239583333333334 14.739583333333336  L 6.5625 15.416666666666668  L 5.833333333333334 15.416666666666668  L 5.833333333333334 14.166666666666664  L 4.583333333333333 14.166666666666664  L 4.583333333333333 13.4375  Z M 10.260416666666668 7.721354166666668  C 10.40798611111111 7.573784722222221  10.538194444444445 7.560763888888888  10.651041666666668 7.682291666666668  C 10.772569444444445 7.795138888888888  10.75954861111111 7.925347222222221  10.611979166666668 8.072916666666668  L 6.822916666666666 11.861979166666664  C 6.675347222222223 12.00954861111111  6.545138888888889 12.022569444444443  6.432291666666666 11.901041666666664  C 6.310763888888889 11.788194444444443  6.323784722222223 11.65798611111111  6.471354166666666 11.510416666666664  L 10.260416666666668 7.721354166666668  Z M 3.333333333333333 16.666666666666668  L 7.083333333333334 16.666666666666668  L 14.166666666666668 9.583333333333332  L 10.416666666666668 5.833333333333332  L 3.333333333333333 12.916666666666664  L 3.333333333333333 16.666666666666668  Z M 11.25 5  L 15 8.75  L 16.197916666666668 7.552083333333332  C 16.44097222222222 7.309027777777777  16.5625 7.013888888888888  16.5625 6.666666666666668  C 16.5625 6.319444444444445  16.44097222222222 6.024305555555554  16.197916666666668 5.78125  L 14.21875 3.8020833333333326  C 13.975694444444446 3.559027777777777  13.680555555555555 3.4375  13.333333333333332 3.4375  C 12.986111111111114 3.4375  12.690972222222223 3.559027777777777  12.447916666666668 3.8020833333333326  L 11.25 5  Z M 18.899739583333332 1.1002604166666674  C 19.63324652777778 1.8337673611111094  20 2.717013888888886  20 3.75  L 20 16.25  C 20 17.28298611111111  19.63324652777778 18.16623263888889  18.899739583333332 18.899739583333332  C 18.16623263888889 19.63324652777778  17.282986111111114 20  16.25 20  L 3.75 20  C 2.717013888888889 20  1.8337673611111114 19.63324652777778  1.1002604166666667 18.899739583333332  C 0.36675347222222215 18.16623263888889  0 17.28298611111111  0 16.25  L 0 3.75  C 0 2.717013888888886  0.36675347222222215 1.8337673611111094  1.1002604166666667 1.1002604166666674  C 1.8337673611111114 0.366753472222221  2.717013888888889 0  3.75 0  L 16.25 0  C 17.282986111111114 0  18.16623263888889 0.366753472222221  18.899739583333332 1.1002604166666674  Z " fill-rule="nonzero" fill="#70b603" stroke="none" transform="matrix(1 0 0 1 1024 1127 )"/>
  </g>
</svg>