<?xml version="1.0" encoding="utf-8"?>
<svg version="1.1" xmlns:xlink="http://www.w3.org/1999/xlink" width="22px" height="22px" xmlns="http://www.w3.org/2000/svg">
  <g transform="matrix(1 0 0 1 -1181 -496 )">
    <path d="M 16.184895833333336 14.895833333333332  C 16.366319444444446 14.714409722222223  16.45703125 14.494791666666668  16.45703125 14.236979166666668  C 16.45703125 13.988715277777777  16.366319444444446 13.773871527777777  16.184895833333336 13.592447916666668  L 13.592447916666666 11  L 16.184895833333336 8.407552083333334  C 16.366319444444446 8.22612847222222  16.45703125 8.01128472222222  16.45703125 7.763020833333334  C 16.45703125 7.505208333333334  16.366319444444446 7.285590277777775  16.184895833333336 7.104166666666666  L 14.895833333333334 5.815104166666666  C 14.714409722222225 5.6336805555555545  14.494791666666666 5.54296875  14.236979166666666 5.54296875  C 13.98871527777778 5.54296875  13.77387152777778 5.6336805555555545  13.592447916666666 5.815104166666666  L 11 8.407552083333334  L 8.407552083333332 5.815104166666666  C 8.226128472222223 5.6336805555555545  8.011284722222223 5.54296875  7.763020833333333 5.54296875  C 7.505208333333333 5.54296875  7.285590277777779 5.6336805555555545  7.104166666666667 5.815104166666666  L 5.815104166666667 7.104166666666666  C 5.633680555555555 7.285590277777775  5.542968750000001 7.505208333333334  5.54296875 7.763020833333334  C 5.542968750000001 8.01128472222222  5.633680555555555 8.22612847222222  5.815104166666667 8.407552083333334  L 8.407552083333332 11  L 5.815104166666667 13.592447916666668  C 5.633680555555555 13.773871527777777  5.542968750000001 13.988715277777777  5.54296875 14.236979166666668  C 5.542968750000001 14.494791666666668  5.633680555555555 14.714409722222223  5.815104166666667 14.895833333333332  L 7.104166666666667 16.184895833333332  C 7.285590277777779 16.36631944444444  7.505208333333333 16.45703125  7.763020833333333 16.45703125  C 8.011284722222223 16.45703125  8.226128472222223 16.36631944444444  8.407552083333332 16.184895833333332  L 11 13.592447916666668  L 13.592447916666666 16.184895833333332  C 13.77387152777778 16.36631944444444  13.98871527777778 16.45703125  14.236979166666666 16.45703125  C 14.494791666666666 16.45703125  14.714409722222225 16.36631944444444  14.895833333333334 16.184895833333332  L 16.184895833333336 14.895833333333332  Z M 20.524739583333336 5.478515625  C 21.508246527777775 7.163845486111109  22 9.004340277777775  22 11  C 22 12.995659722222223  21.508246527777775 14.836154513888886  20.524739583333336 16.521484375  C 19.541232638888893 18.20681423611111  18.20681423611111 19.54123263888889  16.521484375 20.524739583333336  C 14.836154513888891 21.50824652777778  12.995659722222223 22  11 22  C 9.004340277777779 22  7.163845486111112 21.50824652777778  5.478515625 20.524739583333336  C 3.7931857638888893 19.54123263888889  2.4587673611111116 18.20681423611111  1.4752604166666667 16.521484375  C 0.49175347222222215 14.836154513888886  0 12.995659722222223  0 11  C 0 9.004340277777775  0.49175347222222215 7.163845486111109  1.4752604166666667 5.478515625  C 2.4587673611111116 3.7931857638888884  3.7931857638888893 2.458767361111109  5.478515625 1.4752604166666659  C 7.163845486111112 0.4917534722222203  9.004340277777779 0  11 0  C 12.995659722222223 0  14.836154513888891 0.4917534722222203  16.521484375 1.4752604166666659  C 18.20681423611111 2.458767361111109  19.541232638888893 3.7931857638888884  20.524739583333336 5.478515625  Z " fill-rule="nonzero" fill="#d9001b" stroke="none" transform="matrix(1 0 0 1 1181 496 )" />
  </g>
</svg>