<?xml version="1.0" encoding="utf-8"?>
<svg version="1.1" xmlns:xlink="http://www.w3.org/1999/xlink" width="30px" height="17px" xmlns="http://www.w3.org/2000/svg">
  <g transform="matrix(1 0 0 1 -1154 -570 )">
    <path d="M 22.27399553571429 13.31814236111111  C 24.511718750000004 12.12282986111111  26.372767857142858 10.516782407407405  27.857142857142858 8.5  C 26.160714285714285 6.1782407407407405  24.034598214285715 4.441840277777778  21.478794642857142 3.2907986111111103  C 22.159598214285715 4.313946759259258  22.5 5.420717592592592  22.5 6.611111111111111  C 22.5 8.431134259259258  21.766183035714285 9.987991898148147  20.298549107142858 11.281684027777777  C 18.83091517857143 12.575376157407405  17.064732142857142 13.222222222222223  15 13.222222222222223  C 12.93526785714286 13.222222222222223  11.169084821428573 12.575376157407405  9.701450892857144 11.281684027777777  C 8.233816964285715 9.987991898148147  7.5 8.431134259259258  7.5 6.611111111111111  C 7.5 5.420717592592592  7.8404017857142865 4.313946759259258  8.521205357142856 3.2907986111111103  C 5.9654017857142865 4.441840277777778  3.839285714285715 6.1782407407407405  2.142857142857143 8.5  C 3.6272321428571432 10.516782407407405  5.48828125 12.12282986111111  7.726004464285714 13.31814236111111  C 9.963727678571429 14.51345486111111  12.388392857142856 15.11111111111111  15 15.11111111111111  C 17.611607142857142 15.11111111111111  20.036272321428577 14.51345486111111  22.27399553571429 13.31814236111111  Z M 15.569196428571429 3.3350694444444446  C 15.72544642857143 3.1973379629629632  15.803571428571429 3.0300925925925917  15.803571428571429 2.8333333333333326  C 15.803571428571429 2.6365740740740735  15.72544642857143 2.4693287037037024  15.569196428571429 2.3315972222222223  C 15.41294642857143 2.1938657407407387  15.223214285714285 2.1249999999999982  15 2.125  C 13.604910714285715 2.1249999999999982  12.40792410714286 2.5652488425925917  11.409040178571429 3.4457465277777777  C 10.410156250000002 4.326244212962964  9.910714285714285 5.3813657407407405  9.910714285714285 6.611111111111111  C 9.910714285714285 6.807870370370369  9.988839285714288 6.9751157407407405  10.145089285714285 7.112847222222222  C 10.301339285714286 7.250578703703702  10.491071428571429 7.319444444444445  10.714285714285715 7.319444444444445  C 10.937500000000002 7.319444444444445  11.127232142857144 7.250578703703702  11.283482142857144 7.112847222222222  C 11.439732142857142 6.9751157407407405  11.517857142857144 6.807870370370369  11.517857142857144 6.611111111111111  C 11.517857142857144 5.765046296296296  11.858258928571429 5.041956018518518  12.5390625 4.441840277777778  C 13.219866071428573 3.8417245370370368  14.040178571428573 3.541666666666665  15 3.5416666666666674  C 15.223214285714285 3.541666666666665  15.41294642857143 3.4728009259259247  15.569196428571429 3.3350694444444446  Z M 29.66517857142857 7.481770833333333  C 29.888392857142858 7.826099537037036  30 8.165509259259258  30 8.5  C 30 8.834490740740739  29.888392857142858 9.173900462962964  29.66517857142857 9.518229166666666  C 28.102678571428577 11.780960648148147  26.001674107142865 13.593605324074076  23.36216517857143 14.956163194444445  C 20.72265625 16.318721064814813  17.935267857142858 17  15 17  C 12.064732142857144 17  9.27734375 16.316261574074076  6.637834821428572 14.948784722222223  C 3.9983258928571432 13.58130787037037  1.8973214285714288 11.771122685185183  0.3348214285714286 9.518229166666666  C 0.11160714285714285 9.173900462962964  0 8.834490740740739  0 8.5  C 0 8.165509259259258  0.11160714285714285 7.826099537037036  0.3348214285714286 7.481770833333333  C 1.8973214285714288 5.228877314814814  3.9983258928571432 3.418692129629629  6.637834821428572 2.0512152777777777  C 9.27734375 0.6837384259259246  12.064732142857144 0  15 0  C 17.935267857142858 0  20.72265625 0.6837384259259246  23.36216517857143 2.0512152777777777  C 26.001674107142865 3.418692129629629  28.102678571428577 5.228877314814814  29.66517857142857 7.481770833333333  Z " fill-rule="nonzero" fill="#000000" stroke="none" transform="matrix(1 0 0 1 1154 570 )" />
  </g>
</svg>