<?xml version="1.0" encoding="utf-8"?>
<svg version="1.1" xmlns:xlink="http://www.w3.org/1999/xlink" width="18px" height="23px" xmlns="http://www.w3.org/2000/svg">
  <g transform="matrix(1 0 0 1 -1087 -25 )">
    <path d="M 17.880468750000002 16.628580729166664  C 17.96015625 17.382269965277775  18 18.18337673611111  18 19.031901041666668  C 18 20.120008680555557  17.70703125 21.053385416666668  17.12109375 21.83203125  C 16.53515625 22.610677083333332  15.829687500000002 23  15.004687500000001 23  L 2.9953125000000003 23  C 2.1703125 23  1.4648437500000002 22.610677083333332  0.8789062500000001 21.83203125  C 0.2929687500000001 21.053385416666668  0 20.120008680555557  0 19.031901041666668  C 0 18.18337673611111  0.039843750000000094 17.382269965277775  0.1195312500000001 16.628580729166664  C 0.1992187500000001 15.874891493055552  0.3468750000000001 15.1162109375  0.5625000000000001 14.3525390625  C 0.7781250000000002 13.5888671875  1.0523437500000001 12.935004340277779  1.3851562499999999 12.390950520833336  C 1.7179687500000003 11.846896701388886  2.15859375 11.402669270833332  2.70703125 11.058268229166668  C 3.25546875 10.7138671875  3.8859375000000003 10.541666666666668  4.5984375 10.541666666666668  C 5.8265625000000005 11.819444444444443  7.293750000000001 12.458333333333336  9 12.458333333333336  C 10.706250000000002 12.458333333333336  12.173437500000002 11.819444444444443  13.401562499999999 10.541666666666668  C 14.114062500000001 10.541666666666668  14.74453125 10.7138671875  15.29296875 11.058268229166668  C 15.84140625 11.402669270833332  16.282031250000003 11.846896701388886  16.614843750000002 12.390950520833336  C 16.94765625 12.935004340277779  17.221875 13.5888671875  17.4375 14.3525390625  C 17.653125000000003 15.1162109375  17.80078125 15.874891493055552  17.880468750000002 16.628580729166664  Z M 12.81796875 1.6845703125  C 13.87265625 2.8076171875  14.4 4.162760416666668  14.4 5.75  C 14.4 7.337239583333332  13.87265625 8.6923828125  12.81796875 9.8154296875  C 11.76328125 10.9384765625  10.490625 11.5  9 11.5  C 7.5093749999999995 11.5  6.2367187500000005 10.9384765625  5.1820312500000005 9.8154296875  C 4.1273437500000005 8.6923828125  3.6 7.337239583333332  3.6 5.75  C 3.6 4.162760416666668  4.1273437500000005 2.8076171875  5.1820312500000005 1.6845703125  C 6.2367187500000005 0.5615234375  7.5093749999999995 0  9 0  C 10.490625 0  11.76328125 0.5615234375  12.81796875 1.6845703125  Z " fill-rule="nonzero" fill="#000000" stroke="none" transform="matrix(1 0 0 1 1087 25 )" />
  </g>
</svg>