<?xml version="1.0" encoding="utf-8"?>
<svg version="1.1" xmlns:xlink="http://www.w3.org/1999/xlink" width="16px" height="13px" xmlns="http://www.w3.org/2000/svg">
  <g transform="matrix(1 0 0 1 -1252 -35 )">
    <path d="M 6.510204081632653 11.887890624999999  C 6.503401360544218 11.925130208333334  6.510204081632653 11.970833333333335  6.530612244897959 12.025  C 6.530612244897959 12.052083333333334  6.534013605442177 12.119791666666666  6.540816326530612 12.228125  C 6.547619047619048 12.336458333333333  6.549319727891157 12.426171875  6.545918367346939 12.497265624999999  C 6.542517006802722 12.568359375  6.532312925170069 12.647916666666667  6.51530612244898 12.7359375  C 6.4982993197278915 12.823958333333335  6.464285714285714 12.889973958333334  6.413265306122449 12.933984375  C 6.362244897959184 12.977994791666667  6.292517006802722 13  6.204081632653061 13  L 2.938775510204082 13  C 2.1292517006802725 13  1.4370748299319729 12.713932291666666  0.8622448979591837 12.141796874999999  C 0.28741496598639454 11.569661458333334  0 10.880729166666665  0 10.075000000000001  L 0 2.925  C 0 2.1192708333333314  0.28741496598639454 1.430338541666666  0.8622448979591837 0.8582031250000003  C 1.4370748299319729 0.2860677083333315  2.1292517006802725 0  2.938775510204082 0  L 6.204081632653061 0  C 6.292517006802722 0  6.3690476190476195 0.032161458333331505  6.433673469387755 0.09648437500000029  C 6.4982993197278915 0.16080729166666619  6.530612244897959 0.23697916666666619  6.530612244897959 0.3250000000000003  C 6.530612244897959 0.3520833333333321  6.534013605442177 0.4197916666666659  6.540816326530612 0.5281250000000003  C 6.547619047619048 0.6364583333333318  6.549319727891157 0.7261718750000006  6.545918367346939 0.7972656249999994  C 6.542517006802722 0.8683593749999997  6.532312925170069 0.9479166666666662  6.51530612244898 1.0359375000000002  C 6.4982993197278915 1.1239583333333316  6.464285714285714 1.189973958333332  6.413265306122449 1.2339843750000006  C 6.362244897959184 1.277994791666666  6.292517006802722 1.2999999999999998  6.204081632653061 1.2999999999999998  L 2.938775510204082 1.2999999999999998  C 2.489795918367347 1.2999999999999998  2.1054421768707487 1.4591145833333312  1.7857142857142858 1.77734375  C 1.4659863945578233 2.095572916666666  1.3061224489795917 2.4781250000000004  1.3061224489795917 2.925  L 1.3061224489795917 10.075000000000001  C 1.3061224489795917 10.521875  1.4659863945578233 10.904427083333331  1.7857142857142858 11.22265625  C 2.1054421768707487 11.540885416666665  2.489795918367347 11.700000000000001  2.938775510204082 11.700000000000001  L 5.877551020408164 11.700000000000001  L 5.989795918367347 11.700000000000001  L 6.122448979591836 11.700000000000001  C 6.122448979591836 11.700000000000001  6.161564625850341 11.703385416666665  6.239795918367347 11.710156249999999  C 6.318027210884354 11.716927083333335  6.357142857142857 11.727083333333333  6.357142857142857 11.740625  C 6.357142857142857 11.754166666666665  6.384353741496599 11.772786458333334  6.438775510204081 11.796484375  C 6.493197278911565 11.820182291666665  6.517006802721089 11.850651041666666  6.510204081632653 11.887890624999999  Z M 15.806122448979592 6.04296875  C 15.935374149659864 6.171614583333334  16 6.323958333333334  16 6.5  C 16 6.6760416666666655  15.935374149659864 6.8283854166666655  15.806122448979592 6.95703125  L 10.255102040816327 12.48203125  C 10.125850340136054 12.610677083333334  9.97278911564626 12.674999999999999  9.795918367346939 12.674999999999999  C 9.61904761904762 12.674999999999999  9.465986394557824 12.610677083333334  9.33673469387755 12.48203125  C 9.20748299319728 12.353385416666665  9.142857142857142 12.201041666666665  9.142857142857142 12.025  L 9.142857142857142 9.1  L 4.571428571428571 9.1  C 4.394557823129252 9.1  4.241496598639456 9.035677083333333  4.112244897959184 8.907031250000001  C 3.9829931972789114 8.778385416666666  3.9183673469387754 8.626041666666666  3.9183673469387754 8.450000000000001  L 3.9183673469387754 4.55  C 3.9183673469387754 4.373958333333332  3.9829931972789114 4.221614583333332  4.112244897959184 4.09296875  C 4.241496598639456 3.9643229166666663  4.394557823129252 3.9000000000000004  4.571428571428571 3.9000000000000004  L 9.142857142857142 3.9000000000000004  L 9.142857142857142 0.9749999999999994  C 9.142857142857142 0.7989583333333312  9.20748299319728 0.6466145833333312  9.33673469387755 0.5179687499999994  C 9.465986394557824 0.3893229166666662  9.61904761904762 0.3250000000000003  9.795918367346939 0.3250000000000003  C 9.97278911564626 0.3250000000000003  10.125850340136054 0.3893229166666662  10.255102040816327 0.5179687499999994  L 15.806122448979592 6.04296875  Z " fill-rule="nonzero" fill="#e03b6f" stroke="none" transform="matrix(1 0 0 1 1252 35 )" />
  </g>
</svg>