<?xml version="1.0" encoding="utf-8"?>
<svg version="1.1" xmlns:xlink="http://www.w3.org/1999/xlink" width="22px" height="20px" xmlns="http://www.w3.org/2000/svg">
  <g transform="matrix(1 0 0 1 -1132 -510 )">
    <path d="M 21.60258064516129 2.7609427609427617  C 21.867526881720433 3.075196408529741  22.000000000000004 3.45679012345679  22 3.9057239057239057  C 22.000000000000004 4.354657687991019  21.867526881720433 4.736251402918068  21.60258064516129 5.05050505050505  L 11.326451612903227 17.23905723905724  L 9.396129032258065 19.52861952861953  C 9.131182795698926 19.84287317620651  8.809462365591399 20  8.430967741935484 20  C 8.05247311827957 20  7.730752688172044 19.84287317620651  7.465806451612903 19.52861952861953  L 5.535483870967742 17.23905723905724  L 0.3974193548387097 11.144781144781145  C 0.13247311827957003 10.830527497194161  0 10.448933782267114  0 10  C 0 9.551066217732885  0.13247311827957003 9.169472502805835  0.3974193548387097 8.855218855218856  L 2.327741935483871 6.565656565656566  C 2.592688172043011 6.251402918069584  2.914408602150538 6.094276094276092  3.2929032258064517 6.094276094276094  C 3.6713978494623665 6.094276094276092  3.9931182795698925 6.251402918069584  4.258064516129032 6.565656565656566  L 8.430967741935484 11.531986531986531  L 17.741935483870968 0.47138047138047146  C 18.00688172043011 0.15712682379348974  18.328602150537638 0  18.70709677419355 0  C 19.085591397849463 0  19.407311827956992 0.15712682379348974  19.67225806451613 0.47138047138047146  L 21.60258064516129 2.7609427609427617  Z " fill-rule="nonzero" fill="#039d12" stroke="none" transform="matrix(1 0 0 1 1132 510 )" />
  </g>
</svg>